<?xml version="1.0" standalone="no"?>
<!DOCTYPE svg PUBLIC "-//W3C//DTD SVG 20010904//EN"
 "http://www.w3.org/TR/2001/REC-SVG-20010904/DTD/svg10.dtd">
<svg version="1.0" xmlns="http://www.w3.org/2000/svg"
 width="700.000000pt" height="700.000000pt" viewBox="0 0 700.000000 700.000000"
 preserveAspectRatio="xMidYMid meet">
<metadata>
Created by potrace 1.14, written by Peter Selinger 2001-2017
</metadata>
<g transform="translate(0.000000,700.000000) scale(0.100000,-0.100000)"
fill="#000000" stroke="none">
<path d="M5460 6982 c-82 -22 -146 -59 -213 -125 -87 -85 -142 -177 -239 -397
-65 -147 -80 -206 -80 -303 1 -86 3 -102 47 -282 45 -189 46 -194 49 -272 6
-126 -35 -250 -110 -333 -58 -64 -120 -73 -195 -27 -111 67 -209 196 -449 592
-376 621 -570 830 -785 848 -116 10 -258 -79 -324 -202 -49 -92 -61 -165 -57
-326 3 -77 7 -151 10 -164 3 -12 8 -43 10 -67 3 -24 11 -74 17 -111 6 -37 13
-129 14 -203 5 -182 -16 -269 -86 -362 -67 -88 -171 -147 -275 -156 -145 -11
-293 44 -614 228 -111 64 -248 126 -309 140 -77 18 -161 8 -214 -25 -82 -52
-163 -189 -191 -325 -39 -192 11 -398 170 -690 70 -131 113 -190 167 -232 23
-18 48 -38 54 -45 7 -6 73 -42 145 -79 73 -37 161 -85 195 -106 110 -70 196
-184 221 -295 38 -168 -90 -255 -428 -293 -103 -11 -227 -18 -460 -25 -228 -8
-465 -21 -510 -30 -9 -2 -41 -6 -71 -10 -30 -4 -94 -18 -144 -31 -49 -13 -98
-26 -108 -28 -38 -10 -124 -63 -160 -100 -57 -56 -80 -116 -79 -201 2 -160 81
-277 222 -328 71 -26 96 -30 245 -32 127 -2 204 3 335 20 360 49 471 60 605
59 211 0 330 -34 425 -121 46 -41 94 -135 107 -208 37 -202 -68 -378 -392
-660 -333 -291 -417 -421 -370 -581 26 -90 84 -158 172 -200 111 -53 258 -21
513 113 396 208 448 228 590 228 85 0 100 -3 140 -27 89 -52 146 -129 173
-228 13 -53 16 -223 3 -273 -9 -40 -19 -141 -20 -217 -3 -131 33 -226 117
-312 67 -69 123 -92 200 -84 119 12 226 87 430 300 381 398 497 502 644 572
141 68 267 70 398 4 129 -64 210 -173 294 -395 13 -33 27 -69 31 -80 4 -11 18
-47 31 -80 64 -171 152 -291 250 -341 237 -120 668 -79 829 78 78 77 110 177
104 325 -2 47 -6 93 -9 102 -2 9 -7 34 -11 56 -3 22 -12 60 -19 85 -55 181
-84 264 -165 485 -167 454 -235 684 -255 870 -8 73 -18 549 -18 860 0 473 12
1535 17 1565 3 14 7 45 10 70 8 74 16 120 38 220 32 152 34 159 68 280 17 63
33 122 36 130 2 8 24 85 49 170 49 168 110 396 119 451 3 19 12 72 20 119 15
85 16 332 2 394 -14 60 -65 177 -100 231 -66 98 -144 169 -285 257 -42 26 -81
51 -87 55 -10 8 -28 19 -93 55 -109 62 -268 82 -391 50z"/>
</g>
</svg>
