<?xml version="1.0" standalone="no"?>
<!DOCTYPE svg PUBLIC "-//W3C//DTD SVG 20010904//EN"
 "http://www.w3.org/TR/2001/REC-SVG-20010904/DTD/svg10.dtd">
<svg version="1.0" xmlns="http://www.w3.org/2000/svg"
 width="800.000000pt" height="800.000000pt" viewBox="0 0 800.000000 800.000000"
 preserveAspectRatio="xMidYMid meet">
<metadata>
Created by potrace 1.14, written by Peter Selinger 2001-2017
</metadata>
<g transform="translate(0.000000,800.000000) scale(0.100000,-0.100000)"
fill="#000000" stroke="none">
<path d="M6298 7995 c-2 -2 -15 -6 -28 -9 -107 -21 -217 -82 -286 -159 -64
-71 -84 -97 -84 -107 0 -6 -4 -10 -10 -10 -5 0 -10 -6 -10 -14 0 -8 -7 -21
-14 -29 -8 -8 -28 -41 -44 -73 -15 -33 -33 -68 -39 -79 -6 -11 -20 -40 -31
-65 -11 -25 -30 -67 -42 -95 -36 -79 -70 -175 -64 -175 4 0 2 -6 -3 -12 -10
-13 -10 -215 0 -273 2 -16 19 -86 36 -155 18 -69 35 -136 37 -150 3 -14 7 -33
10 -43 17 -57 24 -193 12 -256 -5 -25 -9 -54 -9 -63 0 -10 -5 -20 -10 -23 -5
-4 -7 -11 -4 -16 4 -5 1 -9 -4 -9 -6 0 -11 -6 -11 -13 0 -23 -37 -91 -74 -133
-39 -46 -91 -75 -136 -76 -85 -3 -230 123 -350 302 -8 12 -26 39 -40 59 -14
20 -63 97 -109 171 -46 74 -99 159 -118 188 -18 28 -31 52 -28 52 3 0 -3 9
-13 20 -10 11 -25 33 -33 48 -24 48 -207 333 -219 342 -3 3 -21 28 -40 55
-107 159 -266 320 -382 388 -156 91 -325 65 -465 -71 -109 -106 -151 -235
-147 -447 3 -125 6 -166 18 -247 9 -56 16 -109 21 -148 2 -19 7 -57 11 -85 13
-102 12 -329 -1 -393 -17 -76 -64 -175 -105 -219 -50 -55 -142 -120 -180 -127
-3 -1 -10 -4 -16 -8 -12 -8 -96 -21 -139 -21 -82 -1 -195 26 -292 68 -77 34
-188 90 -201 103 -7 6 -17 12 -22 12 -5 0 -31 13 -58 29 -207 122 -364 195
-463 217 -42 9 -130 5 -168 -7 -54 -18 -104 -54 -137 -100 -16 -22 -33 -46
-39 -53 -13 -15 -69 -120 -68 -126 0 -3 -4 -16 -9 -30 -5 -14 -10 -33 -11 -42
-1 -10 -4 -18 -7 -18 -8 0 -13 -65 -14 -170 -1 -131 9 -188 58 -333 30 -90
113 -268 130 -279 6 -4 8 -8 4 -8 -4 0 5 -21 20 -47 16 -27 31 -55 35 -63 22
-45 73 -115 112 -152 33 -33 128 -102 160 -118 17 -8 32 -17 35 -20 3 -3 52
-29 110 -58 227 -114 286 -159 363 -275 103 -155 103 -293 -1 -375 -36 -29
-119 -68 -167 -78 -67 -15 -175 -35 -214 -39 -25 -3 -66 -8 -91 -11 -25 -3
-51 -5 -57 -4 -7 0 -19 0 -25 0 -7 0 -44 -1 -83 -4 -38 -3 -149 -7 -245 -11
-222 -7 -391 -15 -455 -20 -202 -17 -224 -19 -345 -40 -249 -43 -417 -141
-468 -275 -16 -44 -20 -73 -18 -140 2 -47 9 -98 16 -115 32 -78 57 -120 88
-151 34 -34 83 -72 92 -72 3 0 21 -6 40 -14 91 -38 134 -43 325 -42 183 1 241
5 333 19 24 3 58 8 75 10 18 2 59 6 92 10 33 3 67 8 75 10 8 2 40 7 70 10 30
3 71 8 90 11 136 18 418 24 495 10 22 -4 49 -9 60 -11 90 -15 184 -63 251
-130 30 -29 55 -56 54 -60 0 -3 11 -27 24 -53 13 -26 27 -63 31 -82 10 -47 14
-193 7 -205 -4 -5 -8 -19 -9 -30 -2 -11 -8 -24 -13 -29 -4 -4 -6 -15 -3 -22 3
-8 0 -14 -6 -14 -6 0 -11 -7 -11 -16 0 -20 -74 -134 -126 -194 -42 -49 -168
-175 -230 -230 -21 -19 -75 -66 -119 -105 -109 -96 -245 -231 -245 -244 0 -6
-4 -11 -9 -11 -5 0 -20 -17 -32 -37 -13 -21 -26 -40 -29 -43 -5 -4 -27 -54
-50 -117 -16 -39 -3 -139 23 -196 62 -130 172 -208 298 -212 137 -4 280 49
584 215 349 191 525 241 673 191 34 -12 72 -30 85 -41 12 -10 31 -27 43 -37
36 -32 90 -116 110 -173 21 -62 27 -234 12 -336 -30 -206 -30 -343 1 -436 12
-37 31 -78 42 -92 10 -13 19 -27 19 -31 0 -16 100 -103 142 -124 52 -25 136
-33 183 -19 44 14 166 78 190 100 11 11 39 34 62 51 23 18 109 101 190 186
235 246 454 463 508 506 28 22 52 42 55 45 8 10 113 76 146 93 174 89 330 94
487 16 66 -33 210 -169 223 -211 4 -13 10 -25 14 -28 12 -8 75 -156 128 -301
82 -221 123 -300 204 -395 49 -57 169 -123 253 -140 149 -29 181 -33 280 -30
186 6 379 57 481 127 71 49 134 134 151 202 20 88 24 134 19 217 -7 117 -9
126 -36 236 -12 49 -23 93 -25 99 -4 23 -38 131 -45 145 -4 8 -13 33 -19 55
-7 22 -16 49 -20 60 -5 11 -20 52 -34 90 -109 295 -156 426 -168 460 -7 22
-17 44 -21 50 -4 5 -8 18 -8 30 0 12 -5 26 -12 33 -7 7 -9 12 -5 12 4 0 0 17
-8 38 -12 32 -49 155 -61 201 -17 70 -35 150 -38 171 -2 14 -6 36 -9 50 -20
95 -25 206 -31 648 -3 199 -8 366 -11 371 -3 6 -1 12 4 15 5 3 5 21 1 41 -4
19 -5 35 -1 35 3 0 7 224 8 498 3 689 10 1208 17 1264 3 27 8 67 10 90 2 24 7
54 10 68 3 14 8 38 11 54 8 55 26 141 41 205 9 36 18 73 20 83 7 31 12 51 34
128 11 41 22 82 24 90 9 34 39 139 57 195 11 33 22 73 25 89 3 16 8 34 12 40
3 6 7 16 8 21 1 6 9 37 19 70 23 83 56 206 61 228 2 9 6 25 8 35 16 66 28 121
31 142 9 53 16 96 21 120 14 64 13 328 -1 398 -38 196 -122 340 -268 462 -85
72 -68 60 -192 137 -33 20 -61 41 -63 45 -2 4 -10 8 -17 8 -8 0 -20 6 -27 13
-20 20 -126 74 -193 98 -44 16 -88 22 -167 24 -58 2 -108 2 -110 0z"/>
</g>
</svg>
