<svg width="391" height="408" viewBox="0 0 391 408" fill="none" xmlns="http://www.w3.org/2000/svg">
<path d="M136.188 121.785C187.439 115.608 148.774 -9.16372 198.374 5.14136C236.802 16.2245 204.424 82.1852 241.057 98.2352C271.372 111.517 303.087 58.719 324.584 83.8848C345.302 108.139 318.924 135.061 302.874 162.628C298 171 284.176 211.15 302.874 229.229C320.953 246.708 346.776 214.652 367.267 229.229C396.072 249.72 389.709 292.435 367.267 319.747C333.606 360.713 290.447 250.421 241.057 269.704C188.657 290.164 240.682 417.027 186.231 402.906C145.54 392.354 177.923 302.572 136.188 307.604C101.392 311.8 123.595 380.276 88.7216 383.772C54.1392 387.238 32.7392 354.009 26.9044 319.747C19.718 277.548 89.3388 272.031 88.7216 229.229C88.0173 180.39 -7.69972 183.246 5.19473 136.135C12.8397 108.204 29.5671 90.271 57.813 83.8848C90.9742 76.3871 102.434 125.853 136.188 121.785Z" stroke="#2D1D20" stroke-width="7"/>
</svg>
