<svg width="356" height="408" viewBox="0 0 356 408" fill="none" xmlns="http://www.w3.org/2000/svg">
<path d="M114.678 268.87C103.178 225.667 10.8324 282.889 4.25429 238.668C-2.67827 192.065 134.607 232.757 114.678 190.063C106.095 171.675 84.7606 174.577 74.5667 157.031C63.0036 137.128 54.5558 117.557 67.4883 98.5155C85.1619 72.4928 120.785 126.863 147.239 109.841C175.664 91.551 138.225 44.4678 166.114 25.3717C204.952 -1.22009 239.32 139.809 261.909 98.5155C272.876 78.4677 252.85 60.9794 261.909 40.0005C269.458 22.5195 275.977 5.84381 294.942 4.13642C307.316 3.0224 314.119 8.90434 324.671 15.4619C371.629 44.6427 324.671 101.745 324.671 157.031C324.671 204.576 323.226 231.256 324.671 278.78C326.136 326.946 379.12 390.866 332.222 401.944C321.281 404.529 314.299 404.838 303.436 401.944C277.649 395.076 286.363 358.361 261.909 347.676C224.132 331.17 191.853 424.239 166.114 392.034C153.063 375.704 171.286 355.002 157.62 339.182C136.307 314.509 94.3921 373.56 74.5667 347.676C53.5682 320.261 123.56 302.241 114.678 268.87Z" stroke="#2D1D20" stroke-width="7"/>
</svg>
