<svg width="400" height="400" viewBox="0 0 400 400" fill="none" xmlns="http://www.w3.org/2000/svg">
<path d="M136.678 264.87C125.178 221.667 32.8324 278.889 26.2543 234.668C19.3217 188.065 156.607 228.757 136.678 186.063C128.095 167.675 106.761 170.577 96.5667 153.031C85.0036 133.128 76.5558 113.557 89.4883 94.5155C107.162 68.4928 142.785 122.863 169.239 105.841C197.664 87.551 160.225 40.4678 188.114 21.3717C226.952 -5.22009 261.32 135.809 283.909 94.5155C294.876 74.4677 274.85 56.9794 283.909 36.0005C291.458 18.5195 297.977 1.84381 316.942 0.136422C329.316 -0.977602 336.119 4.90434 346.671 11.4619C393.629 40.6427 346.671 97.7446 346.671 153.031C346.671 200.576 345.226 227.256 346.671 274.78C348.136 322.946 401.12 386.866 354.222 397.944C343.281 400.529 336.299 400.838 325.436 397.944C299.649 391.076 308.363 354.361 283.909 343.676C246.132 327.17 213.853 420.239 188.114 388.034C175.063 371.704 193.286 351.002 179.62 335.182C158.307 310.509 116.392 369.56 96.5667 343.676C75.5682 316.261 145.56 298.241 136.678 264.87Z" fill="#FFAC70"/>
</svg>
