<svg width="400" height="400" viewBox="0 0 400 400" fill="none" xmlns="http://www.w3.org/2000/svg">
<g clip-path="url(#clip0_713_965)">
<path d="M112.213 81.3784C89.7148 70.5186 118.918 36.4123 101.743 18.2715C80.4808 -4.18631 45.3349 -6.51985 22.6415 14.4909C-3.54613 38.7367 18.59 73.6305 35.7281 104.934C54.2203 138.711 127.398 131.782 112.213 167.169C97.7021 200.984 38.5107 136.626 17.9884 167.169C8.37359 181.478 6.02311 193.626 9.55478 210.5C16.9064 245.625 88.8525 212.698 93.3095 248.306C96.0121 269.897 75.7688 278.056 70.626 299.199C63.8617 327.008 45.2455 359.258 70.626 372.484C90.9159 383.057 106.931 366.66 126.462 354.745C154.611 337.573 147.172 296.963 179.1 288.73C229.213 275.807 202.953 413.299 252.676 398.948C266.337 395.006 274.109 390.456 283.793 380.045C311.936 349.793 228.175 290.745 266.635 275.643C281.012 269.997 290.915 273.329 306.186 275.643C330.208 279.283 341.034 307.769 363.768 299.199C380.696 292.817 392.921 281.229 392.849 263.138C392.778 245.135 376.334 240.26 363.768 227.368C349.416 212.643 334.406 210.965 323.344 193.633C295.267 149.641 413.528 81.9904 363.768 66.256C338.55 58.282 320.535 67.9439 297.753 81.3784C280.73 91.4161 280.642 113.279 261.11 116.276C242.861 119.076 230.284 110.955 217.778 97.3732C204.909 83.3969 219.682 59.5646 202.656 51.1336C192.071 45.8921 183.443 46.9138 172.411 51.1336C157.822 56.7141 160.674 75.413 146.238 81.3784C133.957 86.4531 124.179 87.1547 112.213 81.3784Z" fill="#FFAC70"/>
</g>
<defs>
<clipPath id="clip0_713_965">
<rect width="400" height="400" fill="white"/>
</clipPath>
</defs>
</svg>
