<svg width="427" height="414" viewBox="0 0 427 414" fill="none" xmlns="http://www.w3.org/2000/svg">
<path d="M217.123 396.93C242.205 377.908 219.623 336.001 248.058 322.493C284.098 305.373 297.561 393.636 334.095 377.596C365.491 363.812 369.642 329.402 365.03 295.425C359.564 255.162 272.719 251.784 295.426 218.089C314.837 189.286 362.072 244.723 384.364 218.089C403.021 195.797 407.294 161.519 384.364 143.652C366.496 129.729 346.832 153.349 326.361 143.652C291.836 127.298 333.199 56.5641 295.426 50.8478C255.194 44.7592 287.617 134.127 248.058 143.652C196.778 155.999 244.803 6.01395 193.922 19.913C162.747 28.4291 175.841 88.5389 143.653 85.6494C122.276 83.7303 122.572 50.2455 101.118 50.8478C73.22 51.631 90.315 100.243 65.3494 112.717C45.0868 122.842 24.5796 98.0163 7.34683 112.717C-16.9172 133.416 26.3356 159.407 30.5479 191.021C34.1378 217.964 11.4605 241.271 30.5479 260.624C49.9003 280.245 76.209 248.831 101.118 260.624C149.711 283.63 75.0209 368.18 120.452 396.93C152.353 417.118 187.043 419.743 217.123 396.93Z" fill="#EEBC79"/>
<g style="mix-blend-mode:color-burn">
<path d="M241.123 380.93C266.205 361.908 243.623 320.001 272.058 306.493C308.098 289.373 321.561 377.636 358.095 361.596C389.491 347.812 393.642 313.402 389.03 279.425C383.564 239.162 296.719 235.784 319.426 202.089C338.837 173.286 386.072 228.723 408.364 202.089C427.021 179.797 431.294 145.519 408.364 127.652C390.496 113.729 370.832 137.349 350.361 127.652C315.836 111.298 357.199 40.5641 319.426 34.8478C279.194 28.7592 311.617 118.127 272.058 127.652C220.778 139.999 268.803 -9.98605 217.922 3.91302C186.747 12.4291 199.841 72.5389 167.653 69.6494C146.276 67.7303 146.572 34.2455 125.118 34.8478C97.22 35.631 114.315 84.2426 89.3494 96.7172C69.0868 106.842 48.5796 82.0163 31.3468 96.7172C7.08282 117.416 50.3356 143.407 54.5479 175.021C58.1378 201.964 35.4605 225.271 54.5479 244.624C73.9003 264.245 100.209 232.831 125.118 244.624C173.711 267.63 99.0209 352.18 144.452 380.93C176.353 401.118 211.043 403.743 241.123 380.93Z" stroke="#2D1D20" stroke-width="6"/>
</g>
</svg>
