<svg width="400" height="400" viewBox="0 0 400 400" fill="none" xmlns="http://www.w3.org/2000/svg">
<path d="M81.3784 288.639C70.5186 311.137 36.4123 281.933 18.2715 299.108C-4.18631 320.371 -6.51985 355.517 14.4909 378.21C38.7367 404.398 73.6305 382.262 104.934 365.123C138.711 346.631 131.782 273.454 167.169 288.639C200.984 303.15 136.626 362.341 167.169 382.863C181.478 392.478 193.626 394.828 210.5 391.297C245.625 383.945 212.698 311.999 248.306 307.542C269.897 304.84 278.056 325.083 299.199 330.226C327.008 336.99 359.258 355.606 372.484 330.226C383.057 309.936 366.66 293.921 354.745 274.389C337.573 246.241 296.963 253.68 288.73 221.752C275.807 171.638 413.299 197.898 398.948 148.175C395.006 134.514 390.456 126.743 380.045 117.058C349.793 88.9155 290.745 172.676 275.643 134.216C269.997 119.839 273.329 109.937 275.643 94.6654C279.283 70.6438 307.769 59.818 299.199 37.084C292.817 20.1554 281.229 7.93085 263.138 8.0025C245.135 8.07379 240.26 24.518 227.368 37.084C212.643 51.4354 210.965 66.4455 193.633 77.5073C149.641 105.584 81.9904 -12.6762 66.256 37.084C58.282 62.3016 67.9439 80.3169 81.3784 103.099C91.4161 120.121 113.279 120.209 116.276 139.742C119.076 157.99 110.955 170.567 97.3732 183.073C83.3969 195.943 59.5646 181.17 51.1336 198.196C45.8921 208.78 46.9138 217.409 51.1336 228.44C56.7141 243.029 75.413 240.178 81.3784 254.614C86.4531 266.894 87.1547 276.673 81.3784 288.639Z" fill="#FED69D"/>
</svg>
