<svg width="408" height="392" viewBox="0 0 408 392" fill="none" xmlns="http://www.w3.org/2000/svg">
<path d="M85.8032 284.213C74.9434 306.711 40.8371 277.507 22.6963 294.683C0.238493 315.945 -2.09504 351.091 18.9157 373.784C43.1615 399.972 78.0553 377.836 109.359 360.698C143.136 342.206 136.206 269.028 171.594 284.213C205.409 298.724 141.051 357.915 171.594 378.437C185.903 388.052 198.051 390.403 214.925 386.871C250.05 379.519 217.123 307.573 252.731 303.116C274.322 300.414 282.481 320.657 303.624 325.8C331.433 332.564 363.683 351.18 376.909 325.8C387.482 305.51 371.085 289.495 359.169 269.963C341.997 241.815 301.387 249.254 293.154 217.326C280.232 167.213 417.724 193.473 403.373 143.75C399.431 130.089 394.881 122.317 384.47 112.632C354.218 84.4897 295.17 168.25 280.068 129.79C274.422 115.414 277.753 105.511 280.068 90.2396C283.708 66.218 312.194 55.3922 303.624 32.6582C297.242 15.7296 285.654 3.50504 267.563 3.57666C249.559 3.64798 244.685 20.0922 231.792 32.6582C217.068 47.0096 215.39 62.0197 198.058 73.0815C154.065 101.159 86.4153 -17.1021 70.6808 32.6582C62.7068 57.8758 72.3687 75.8911 85.8032 98.6732C95.8409 115.695 117.704 115.783 120.701 135.316C123.501 153.564 115.379 166.142 101.798 178.647C87.8217 191.517 63.9894 176.744 55.5584 193.77C50.3169 204.354 51.3386 212.983 55.5584 224.015C61.1389 238.604 79.8378 235.752 85.8032 250.188C90.8779 262.468 91.5795 272.247 85.8032 284.213Z" stroke="#2D1D20" stroke-width="7"/>
</svg>
