<svg width="400" height="400" viewBox="0 0 400 400" fill="none" xmlns="http://www.w3.org/2000/svg">
<path d="M141.188 117.785C192.439 111.608 153.774 -13.1637 203.374 1.14136C241.802 12.2245 209.424 78.1852 246.057 94.2352C276.372 107.517 308.087 54.719 329.584 79.8848C350.302 104.139 311.716 126.962 307.874 158.628C304.741 184.448 289.176 207.15 307.874 225.229C325.953 242.708 351.776 210.652 372.267 225.229C401.072 245.72 394.709 288.435 372.267 315.747C338.606 356.713 295.447 246.421 246.057 265.704C193.657 286.164 245.682 413.027 191.231 398.906C150.54 388.354 182.923 298.572 141.188 303.604C106.392 307.8 128.595 376.276 93.7216 379.772C59.1392 383.238 37.7392 350.009 31.9044 315.747C24.718 273.548 94.3388 268.031 93.7216 225.229C93.0173 176.39 -2.69972 179.246 10.1947 132.135C17.8397 104.204 34.5671 86.2711 62.813 79.8848C95.9742 72.3871 107.434 121.853 141.188 117.785Z" fill="#046243"/>
</svg>
