<svg width="408" height="402" viewBox="0 0 408 402" fill="none" xmlns="http://www.w3.org/2000/svg">
<path d="M221.123 381.926C246.205 362.904 223.623 320.997 252.058 307.489C288.098 290.369 301.561 378.632 338.095 362.592C369.491 348.808 373.642 314.398 369.03 280.422C363.564 240.158 276.719 236.78 299.426 203.085C318.837 174.283 366.072 229.719 388.364 203.085C407.021 180.793 411.294 146.516 388.364 128.648C370.496 114.725 350.832 138.345 330.361 128.648C295.836 112.294 337.199 41.5602 299.426 35.8439C259.194 29.7553 291.617 119.123 252.058 128.648C200.778 140.995 248.803 -8.98996 197.922 4.90912C166.747 13.4252 179.841 73.535 147.653 70.6454C126.276 68.7264 126.572 35.2415 105.118 35.8439C77.22 36.6271 94.315 85.2387 69.3494 97.7133C49.0868 107.838 28.5796 83.0124 11.3468 97.7133C-12.9172 118.412 30.3356 144.403 34.5479 176.017C38.1378 202.96 15.4605 226.268 34.5479 245.62C53.9003 265.241 80.209 233.827 105.118 245.62C153.711 268.626 79.0209 353.176 124.452 381.926C156.353 402.114 191.043 404.739 221.123 381.926Z" stroke="#2D1D20" stroke-width="7"/>
</svg>
