<svg width="410" height="419" viewBox="0 0 410 419" fill="none" xmlns="http://www.w3.org/2000/svg">
<path d="M159.188 136.792C210.439 130.616 171.774 5.84409 221.374 20.1492C259.802 31.2323 227.424 97.193 264.057 113.243C294.372 126.525 326.087 73.7268 347.584 98.8926C368.302 123.147 341.924 150.069 325.874 177.636C321 186.008 307.176 226.158 325.874 244.237C343.953 261.716 369.776 229.66 390.267 244.237C419.072 264.728 412.709 307.443 390.267 334.755C356.606 375.72 313.447 265.428 264.057 284.712C211.657 305.171 263.682 432.035 209.231 417.914C168.54 407.361 200.923 317.58 159.188 322.612C124.392 326.808 146.595 395.284 111.722 398.78C77.1392 402.246 55.7392 369.017 49.9044 334.755C42.718 292.556 112.339 287.039 111.722 244.237C111.017 195.398 15.3003 198.254 28.1947 151.143C35.8397 123.211 52.5671 105.279 80.813 98.8926C113.974 91.3949 125.434 140.86 159.188 136.792Z" fill="#EDB3B2"/>
<g style="mix-blend-mode:color-burn">
<path d="M135.188 120.792C186.439 114.616 147.774 -10.1559 197.374 4.14917C235.802 15.2323 203.424 81.193 240.057 97.243C270.372 110.525 302.087 57.7268 323.584 82.8926C344.302 107.147 317.924 134.069 301.874 161.636C297 170.008 283.176 210.158 301.874 228.237C319.953 245.716 345.776 213.66 366.267 228.237C395.072 248.728 388.709 291.443 366.267 318.755C332.606 359.72 289.447 249.428 240.057 268.712C187.657 289.171 239.682 416.035 185.231 401.914C144.54 391.361 176.923 301.58 135.188 306.612C100.392 310.808 122.595 379.284 87.7216 382.78C53.1392 386.246 31.7392 353.017 25.9044 318.755C18.718 276.556 88.3388 271.039 87.7216 228.237C87.0173 179.398 -8.69972 182.254 4.19473 135.143C11.8397 107.211 28.5671 89.2789 56.813 82.8926C89.9742 75.3949 101.434 124.86 135.188 120.792Z" stroke="#2D1D20" stroke-width="6"/>
</g>
</svg>
