<svg width="383" height="400" viewBox="0 0 383 400" fill="none" xmlns="http://www.w3.org/2000/svg">
<path d="M132.188 117.785C183.439 111.608 144.774 -13.1637 194.374 1.14136C232.802 12.2245 200.424 78.1852 237.057 94.2352C267.372 107.517 299.087 54.719 320.584 79.8848C341.302 104.139 314.924 131.061 298.874 158.628C294 167 280.176 207.15 298.874 225.229C316.953 242.708 342.776 210.652 363.267 225.229C392.072 245.72 385.709 288.435 363.267 315.747C329.606 356.713 286.447 246.421 237.057 265.704C184.657 286.164 236.682 413.027 182.231 398.906C141.54 388.354 173.923 298.572 132.188 303.604C97.3918 307.8 119.595 376.276 84.7216 379.772C50.1392 383.238 28.7392 350.009 22.9044 315.747C15.718 273.548 85.3388 268.031 84.7216 225.229C84.0173 176.39 -11.6997 179.246 1.19473 132.135C8.83965 104.204 25.5671 86.271 53.813 79.8848C86.9742 72.3871 98.4344 121.853 132.188 117.785Z" fill="#FFB759"/>
</svg>
