<svg width="2560" height="1920" viewBox="0 0 2560 1920" fill="none" xmlns="http://www.w3.org/2000/svg">
<g clip-path="url(#clip0_654_387)">
<path d="M1842.72 281.236C2030.1 260.268 2558.68 326.631 2528.04 747.326C2508.68 1013.15 2335.19 1172.07 2086.43 1267.85C1976.85 1310.04 1894.76 1262.41 1789.38 1314.21C1594.34 1410.08 1714.87 1729 1507.52 1794.08C1433.58 1817.29 1386.7 1800.02 1309.47 1806.45C1115.32 1822.62 1006.63 1909.37 815.122 1873.68C517.01 1818.12 374.654 1636.54 218.896 1376.39C26.7598 1055.49 -22.3036 777.747 103.706 425.442C187.726 190.534 330.189 135.053 359.34 121.951C568.142 28.103 1068.76 -8.01505 1257.12 121.951C1460.15 262.034 1612.72 306.974 1842.72 281.236Z" fill="#9B1921" stroke="#9B1921"/>
</g>
<defs>
<clipPath id="clip0_654_387">
<rect width="2560" height="1920" fill="white"/>
</clipPath>
</defs>
</svg>
