<svg width="407" height="416" viewBox="0 0 407 416" fill="none" xmlns="http://www.w3.org/2000/svg">
<g style="mix-blend-mode:color-burn">
<path d="M148.188 125.785C199.439 119.608 160.774 -5.16372 210.374 9.14136C248.802 20.2245 216.424 86.1852 253.057 102.235C283.372 115.517 315.087 62.719 336.584 87.8848C357.302 112.139 330.924 139.061 314.874 166.628C310 175 296.176 215.15 314.874 233.229C332.953 250.708 358.776 218.652 379.267 233.229C408.072 253.72 401.709 296.435 379.267 323.747C345.606 364.713 302.447 254.421 253.057 273.704C200.657 294.164 252.682 421.027 198.231 406.906C157.54 396.354 189.923 306.572 148.188 311.604C113.392 315.8 135.595 384.276 100.722 387.772C66.1392 391.238 44.7392 358.009 38.9044 323.747C31.718 281.548 101.339 276.031 100.722 233.229C100.017 184.39 4.30028 187.246 17.1947 140.135C24.8397 112.204 41.5671 94.271 69.813 87.8848C102.974 80.3871 114.434 129.853 148.188 125.785Z" stroke="#2D1D20" stroke-width="6"/>
</g>
<g style="mix-blend-mode:color-dodge">
<path d="M132.188 125.785C183.439 119.608 144.774 -5.16372 194.374 9.14136C232.802 20.2245 200.424 86.1852 237.057 102.235C267.372 115.517 299.087 62.719 320.584 87.8848C341.302 112.139 314.924 139.061 298.874 166.628C294 175 280.176 215.15 298.874 233.229C316.953 250.708 342.776 218.652 363.267 233.229C392.072 253.72 385.709 296.435 363.267 323.747C329.606 364.713 286.447 254.421 237.057 273.704C184.657 294.164 236.682 421.027 182.231 406.906C141.54 396.354 173.923 306.572 132.188 311.604C97.3918 315.8 119.595 384.276 84.7216 387.772C50.1392 391.238 28.7392 358.009 22.9044 323.747C15.718 281.548 85.3388 276.031 84.7216 233.229C84.0173 184.39 -11.6997 187.246 1.19473 140.135C8.83965 112.204 25.5671 94.271 53.813 87.8848C86.9742 80.3871 98.4344 129.853 132.188 125.785Z" fill="#CCDFD8"/>
</g>
</svg>
