<svg width="2560" height="2560" viewBox="0 0 2560 2560" fill="none" xmlns="http://www.w3.org/2000/svg">
<g clip-path="url(#clip0_656_395)">
<path d="M115.054 1269.58C222.947 1437.56 499.114 1315.52 570.477 1501.96C660.929 1738.26 96.1262 1779.74 179.498 2018.63C251.145 2223.93 466.689 2267.19 683.827 2254.83C941.14 2240.18 1005.43 1692.82 1207.29 1853.04C1379.83 1989.99 1005.91 2261.2 1163.32 2415.3C1295.07 2544.27 1509.72 2588.23 1634.04 2452.1C1730.91 2346.03 1591.27 2210.03 1662.71 2085.41C1783.19 1875.23 2210.04 2171.7 2264.86 1935.73C2323.25 1684.39 1742.09 1845.19 1701.41 1590.38C1648.68 1260.09 2573.4 1637.86 2510.66 1309.32C2472.22 1108.02 2085.63 1161.08 2119.81 959.018C2142.51 824.826 2354.12 843.249 2360.91 707.32C2369.75 530.565 2053.89 614.603 1987.35 450.604C1933.34 317.498 2100.47 200.128 2016.02 83.9141C1897.12 -79.7162 1711.38 180.875 1509.38 191.874C1337.23 201.248 1201.05 46.3585 1069.24 157.459C935.591 270.103 1121.24 451.958 1034.35 603.598C864.853 899.426 367.101 385.436 162.839 658.433C19.408 850.13 -14.3376 1068.14 115.054 1269.58Z" fill="#47623C" stroke="#47623C" stroke-width="8"/>
</g>
<defs>
<clipPath id="clip0_656_395">
<rect width="2560" height="2560" fill="white"/>
</clipPath>
</defs>
</svg>
