<svg width="409" height="394" viewBox="0 0 409 394" fill="none" xmlns="http://www.w3.org/2000/svg">
<path d="M85.8032 285.213C74.9434 307.711 40.8371 278.507 22.6963 295.683C0.238493 316.945 -2.09504 352.091 18.9157 374.784C43.1615 400.972 78.0553 378.836 109.359 361.698C143.136 343.206 136.206 270.028 171.594 285.213C205.409 299.724 141.051 358.915 171.594 379.437C185.903 389.052 198.051 391.403 214.925 387.871C250.05 380.519 217.123 308.573 252.731 304.116C274.322 301.414 282.481 321.657 303.624 326.8C331.433 333.564 363.683 352.18 376.909 326.8C387.482 306.51 371.085 290.495 359.169 270.963C341.997 242.815 301.387 250.254 293.154 218.326C280.232 168.213 417.724 194.473 403.373 144.75C399.431 131.089 394.881 123.317 384.47 113.632C354.218 85.4897 295.17 169.25 280.068 130.79C274.422 116.414 277.753 106.511 280.068 91.2396C283.708 67.218 312.194 56.3922 303.624 33.6582C297.242 16.7296 285.654 4.50504 267.563 4.57666C249.559 4.64798 244.685 21.0922 231.792 33.6582C217.068 48.0096 215.39 63.0197 198.058 74.0815C154.065 102.159 86.4153 -16.1021 70.6808 33.6582C62.7068 58.8758 72.3687 76.8911 85.8032 99.6732C95.8409 116.695 117.704 116.783 120.701 136.316C123.501 154.564 115.379 167.142 101.798 179.647C87.8217 192.517 63.9894 177.744 55.5584 194.77C50.3169 205.354 51.3386 213.983 55.5584 225.015C61.1389 239.604 79.8378 236.752 85.8032 251.188C90.8779 263.468 91.5795 273.247 85.8032 285.213Z" stroke="black" stroke-width="8"/>
</svg>
