<svg width="400" height="400" viewBox="0 0 400 400" fill="none" xmlns="http://www.w3.org/2000/svg">
<g clip-path="url(#clip0_713_962)">
<path d="M259.37 282.215C208.12 288.392 246.784 413.164 197.185 398.859C158.757 387.775 191.134 321.815 154.502 305.765C124.186 292.483 92.4715 345.281 70.9748 320.115C50.2566 295.861 88.8421 273.038 92.6844 241.372C95.8173 215.552 111.383 192.85 92.6844 174.771C74.6057 157.292 48.7825 189.348 28.2914 174.771C-0.513153 154.28 5.84952 111.565 28.2914 84.253C61.9523 43.2873 105.112 153.579 154.502 134.296C206.902 113.836 154.876 -13.0269 209.328 1.09409C250.018 11.6465 217.636 101.428 259.37 96.3957C294.167 92.2002 271.963 23.7236 306.837 20.228C341.419 16.7615 362.819 49.9906 368.654 84.253C375.841 126.452 306.22 131.969 306.837 174.771C307.541 223.61 403.258 220.754 390.364 267.865C382.719 295.796 365.991 313.729 337.746 320.115C304.584 327.613 293.124 278.147 259.37 282.215Z" fill="#FFAC70"/>
</g>
<defs>
<clipPath id="clip0_713_962">
<rect width="400" height="400" fill="white"/>
</clipPath>
</defs>
</svg>
