<svg width="2560" height="2560" viewBox="0 0 2560 2560" fill="none" xmlns="http://www.w3.org/2000/svg">
<g clip-path="url(#clip0_653_379)">
<path d="M82.0543 1269.58C189.947 1437.56 466.114 1315.52 537.477 1501.96C627.929 1738.26 63.1262 1779.74 146.498 2018.63C218.145 2223.93 433.689 2267.19 650.827 2254.83C908.14 2240.18 972.432 1692.82 1174.29 1853.04C1346.83 1989.99 972.914 2261.2 1130.32 2415.3C1262.07 2544.27 1476.72 2588.23 1601.04 2452.1C1697.91 2346.03 1558.27 2210.03 1629.71 2085.41C1750.19 1875.23 2177.04 2171.7 2231.86 1935.73C2290.25 1684.39 1709.09 1845.19 1668.41 1590.38C1615.68 1260.09 2540.4 1637.86 2477.66 1309.32C2439.22 1108.02 2052.63 1161.08 2086.81 959.018C2109.51 824.826 2321.12 843.249 2327.91 707.32C2336.75 530.565 2020.89 614.603 1954.35 450.604C1900.34 317.498 2067.47 200.128 1983.02 83.9141C1864.12 -79.7162 1678.38 180.875 1476.38 191.874C1304.23 201.248 1168.05 46.3585 1036.24 157.459C902.591 270.103 1088.24 451.958 1001.35 603.598C831.853 899.426 334.101 385.436 129.839 658.433C-13.592 850.13 -47.3376 1068.14 82.0543 1269.58Z" fill="#47623C"/>
</g>
<defs>
<clipPath id="clip0_653_379">
<rect width="2560" height="2560" fill="white"/>
</clipPath>
</defs>
</svg>
